<?xml version="1.0" encoding="UTF-8" standalone="no"?>
<!-- Created with Inkscape (http://www.inkscape.org/) -->

<svg
   xmlns:dc="http://purl.org/dc/elements/1.1/"
   xmlns:cc="http://creativecommons.org/ns#"
   xmlns:rdf="http://www.w3.org/1999/02/22-rdf-syntax-ns#"
   xmlns:svg="http://www.w3.org/2000/svg"
   xmlns="http://www.w3.org/2000/svg"
   xmlns:sodipodi="http://sodipodi.sourceforge.net/DTD/sodipodi-0.dtd"
   xmlns:inkscape="http://www.inkscape.org/namespaces/inkscape"
   width="120"
   height="144"
   id="svg2"
   version="1.1"
   inkscape:version="0.48.4 r9939"
   sodipodi:docname="New document 1">
  <defs
     id="defs4" />
  <sodipodi:namedview
     id="base"
     pagecolor="#ffffff"
     bordercolor="#666666"
     borderopacity="1.0"
     inkscape:pageopacity="0.0"
     inkscape:pageshadow="2"
     inkscape:zoom="1.979899"
     inkscape:cx="70.334784"
     inkscape:cy="21.141724"
     inkscape:document-units="px"
     inkscape:current-layer="layer1"
     showgrid="false"
     inkscape:snap-page="true"
     inkscape:window-width="1362"
     inkscape:window-height="712"
     inkscape:window-x="0"
     inkscape:window-y="36"
     inkscape:window-maximized="0" />
  <metadata
     id="metadata7">
    <rdf:RDF>
      <cc:Work
         rdf:about="">
        <dc:format>image/svg+xml</dc:format>
        <dc:type
           rdf:resource="http://purl.org/dc/dcmitype/StillImage" />
        <dc:title></dc:title>
      </cc:Work>
    </rdf:RDF>
  </metadata>
  <g
     inkscape:label="Layer 1"
     inkscape:groupmode="layer"
     id="layer1"
     transform="translate(0,-908.36217)">
    <rect
       style="fill:#e6e6e6;fill-opacity:1;stroke:none"
       id="rect3009"
       width="120"
       height="144"
       x="0"
       y="0"
       transform="translate(0,908.36217)" />
    <path
       style="fill:#ffffff;fill-opacity:1;stroke:none"
       d="m 59.984375,929.14691 c -15.76044,0 -28.53125,14.01785 -28.53125,31.3125 0,11.32319 5.48229,21.24994 13.6875,26.75 -10.23658,11.93769 -17.21875,35.81379 -17.21875,63.34379 0,39.4708 14.34943,71.4687 32.0625,71.4687 17.713066,0 32.09375,-31.9979 32.09375,-71.4687 0,-27.526 -6.984559,-51.4044 -17.21875,-63.34379 8.205212,-5.50006 13.65625,-15.42681 13.65625,-26.75 0,-17.29465 -12.770805,-31.3125 -28.53125,-31.3125 z"
       id="path3011"
       inkscape:connector-curvature="0" />
  </g>
</svg>
